<mxfile host="app.diagrams.net" modified="2020-10-26T05:26:01.404Z" agent="5.0 (Macintosh; Intel Mac OS X 10_15_7) AppleWebKit/537.36 (KHTML, like Gecko) Chrome/86.0.4240.111 Safari/537.36" etag="r4F7tSHuZZqSSJ2MwEos" version="13.8.2" type="github">
  <diagram id="u1OFBZ_wsdvVigk9kQxi" name="異常客人查詢">
    <mxGraphModel dx="946" dy="614" grid="1" gridSize="10" guides="1" tooltips="1" connect="1" arrows="1" fold="1" page="1" pageScale="1" pageWidth="827" pageHeight="1169" math="0" shadow="0">
      <root>
        <mxCell id="0" />
        <mxCell id="1" parent="0" />
        <mxCell id="0Ia2CwPW3c3o2S4HfaaG-7" style="edgeStyle=orthogonalEdgeStyle;rounded=0;orthogonalLoop=1;jettySize=auto;html=1;" edge="1" parent="1" source="0Ia2CwPW3c3o2S4HfaaG-1">
          <mxGeometry relative="1" as="geometry">
            <mxPoint x="490" y="320" as="targetPoint" />
          </mxGeometry>
        </mxCell>
        <mxCell id="0Ia2CwPW3c3o2S4HfaaG-9" value="" style="edgeStyle=orthogonalEdgeStyle;rounded=0;orthogonalLoop=1;jettySize=auto;html=1;" edge="1" parent="1" source="0Ia2CwPW3c3o2S4HfaaG-1" target="0Ia2CwPW3c3o2S4HfaaG-8">
          <mxGeometry relative="1" as="geometry" />
        </mxCell>
        <mxCell id="0Ia2CwPW3c3o2S4HfaaG-1" value="詢問店家該會員資訊" style="rhombus;whiteSpace=wrap;html=1;fillColor=#d5e8d4;strokeColor=#82b366;" vertex="1" parent="1">
          <mxGeometry x="290" y="150" width="80" height="80" as="geometry" />
        </mxCell>
        <mxCell id="0Ia2CwPW3c3o2S4HfaaG-4" value="" style="edgeStyle=orthogonalEdgeStyle;rounded=0;orthogonalLoop=1;jettySize=auto;html=1;" edge="1" parent="1" source="0Ia2CwPW3c3o2S4HfaaG-3" target="0Ia2CwPW3c3o2S4HfaaG-1">
          <mxGeometry relative="1" as="geometry" />
        </mxCell>
        <mxCell id="0Ia2CwPW3c3o2S4HfaaG-3" value="立案" style="ellipse;whiteSpace=wrap;html=1;aspect=fixed;fillColor=#f8cecc;strokeColor=#b85450;" vertex="1" parent="1">
          <mxGeometry x="290" y="40" width="80" height="80" as="geometry" />
        </mxCell>
        <mxCell id="0Ia2CwPW3c3o2S4HfaaG-5" value="&lt;h1&gt;常見案例&lt;/h1&gt;&lt;p&gt;某經理反應XXX會員近期輸贏異常&lt;/p&gt;" style="text;html=1;strokeColor=none;fillColor=none;spacing=5;spacingTop=-20;whiteSpace=wrap;overflow=hidden;rounded=0;" vertex="1" parent="1">
          <mxGeometry x="530" y="40" width="190" height="120" as="geometry" />
        </mxCell>
        <mxCell id="0Ia2CwPW3c3o2S4HfaaG-6" value="結案" style="ellipse;whiteSpace=wrap;html=1;aspect=fixed;fillColor=#f8cecc;strokeColor=#b85450;" vertex="1" parent="1">
          <mxGeometry x="290" y="490" width="80" height="80" as="geometry" />
        </mxCell>
        <mxCell id="0Ia2CwPW3c3o2S4HfaaG-11" value="" style="edgeStyle=orthogonalEdgeStyle;rounded=0;orthogonalLoop=1;jettySize=auto;html=1;" edge="1" parent="1" source="0Ia2CwPW3c3o2S4HfaaG-8" target="0Ia2CwPW3c3o2S4HfaaG-10">
          <mxGeometry relative="1" as="geometry" />
        </mxCell>
        <mxCell id="0Ia2CwPW3c3o2S4HfaaG-8" value="Paris查詢輸贏歷程" style="rhombus;whiteSpace=wrap;html=1;fillColor=#d5e8d4;strokeColor=#82b366;" vertex="1" parent="1">
          <mxGeometry x="290" y="260" width="80" height="80" as="geometry" />
        </mxCell>
        <mxCell id="0Ia2CwPW3c3o2S4HfaaG-10" value="Paris查詢下注歷程" style="rhombus;whiteSpace=wrap;html=1;fillColor=#d5e8d4;strokeColor=#82b366;" vertex="1" parent="1">
          <mxGeometry x="290" y="370" width="80" height="80" as="geometry" />
        </mxCell>
      </root>
    </mxGraphModel>
  </diagram>
</mxfile>
